<?xml version="1.0" encoding="utf-8"?>
<!-- Generator: Adobe Illustrator 16.0.0, SVG Export Plug-In . SVG Version: 6.00 Build 0)  -->
<!DOCTYPE svg PUBLIC "-//W3C//DTD SVG 1.1//EN" "http://www.w3.org/Graphics/SVG/1.1/DTD/svg11.dtd">
<svg version="1.1" id="Calque_1" xmlns="http://www.w3.org/2000/svg" xmlns:xlink="http://www.w3.org/1999/xlink" x="0px" y="0px"
	 width="1000px" height="240.102px" viewBox="0 0 1000 240.102" enable-background="new 0 0 1000 240.102" xml:space="preserve">
<g>
	<g>
		<g>
			<path fill="#231F20" d="M210.018,120.044c0,44.964-36.448,81.406-81.406,81.406c-44.95,0-81.395-36.442-81.395-81.406
				c0-44.955,36.444-81.393,81.395-81.393C173.57,38.651,210.018,75.089,210.018,120.044z"/>
			<path fill="#FFFFFF" d="M164.203,68.764c-8.266,0.288-15.488,4.847-20.857,11.149c-5.953,6.913-9.907,15.116-12.762,23.483
				c-5.097-4.182-9.034-9.59-17.219-11.951c-6.33-1.819-12.971-1.071-19.078,3.482c-2.898,2.163-4.889,5.432-5.84,8.501
				c-2.458,7.984,2.58,15.092,4.87,17.646l5.002,5.351c1.033,1.055,3.513,3.797,2.305,7.727c-1.314,4.276-6.464,7.039-11.751,5.413
				c-2.359-0.729-5.751-2.485-4.99-4.954c0.312-1.014,1.037-1.778,1.427-2.646c0.357-0.753,0.527-1.317,0.635-1.647
				c0.967-3.155-0.354-7.254-3.727-8.298c-3.155-0.961-6.371-0.198-7.622,3.854c-1.422,4.612,0.786,12.967,12.595,16.613
				c13.841,4.254,25.544-3.284,27.205-13.108c1.044-6.153-1.736-10.729-6.824-16.61l-4.148-4.584
				c-2.516-2.516-3.376-6.79-0.777-10.076c2.195-2.774,5.318-3.957,10.439-2.567c7.473,2.023,10.804,7.214,16.359,11.395
				c-2.293,7.524-3.795,15.079-5.15,21.859l-0.83,5.045c-3.976,20.834-7.005,32.275-14.889,38.844
				c-1.586,1.134-3.857,2.82-7.276,2.939c-1.797,0.058-2.373-1.178-2.403-1.714c-0.039-1.258,1.027-1.837,1.729-2.404
				c1.053-0.576,2.645-1.527,2.537-4.573c-0.117-3.615-3.104-6.74-7.418-6.594c-3.24,0.107-8.167,3.15-7.98,8.729
				c0.191,5.753,5.555,10.068,13.644,9.791c4.325-0.141,13.982-1.902,23.497-13.213c11.073-12.969,14.176-27.836,16.503-38.713
				l2.599-14.364c1.447,0.171,2.99,0.289,4.673,0.328c13.796,0.295,20.693-6.852,20.802-12.049c0.067-3.146-2.068-6.24-5.052-6.17
				c-2.135,0.062-4.819,1.48-5.462,4.435c-0.633,2.9,4.389,5.517,0.467,8.06c-2.787,1.806-7.785,3.075-14.821,2.045l1.284-7.074
				c2.606-13.408,5.829-29.9,18.046-30.299c0.888-0.047,4.148,0.039,4.225,2.191c0.019,0.719-0.159,0.906-0.997,2.55
				c-0.861,1.284-1.184,2.378-1.145,3.635c0.119,3.421,2.722,5.671,6.49,5.539c5.034-0.164,6.483-5.067,6.405-7.593
				C178.709,72.237,172.465,68.496,164.203,68.764z"/>
		</g>
		<g>
			<g>
				<path fill="#231F20" d="M540.754,97.143c18.771,0,31.356,13.562,31.356,32.324c0,17.677-12.827,32.317-31.356,32.317
					c-18.638,0-31.466-14.641-31.466-32.317C509.289,110.704,521.868,97.143,540.754,97.143z M540.754,152.598
					c13.319,0,19.245-12.107,19.245-23.131c0-11.739-7.143-23.115-19.245-23.115c-12.223,0-19.368,11.376-19.368,23.115
					C521.386,140.49,527.321,152.598,540.754,152.598z"/>
			</g>
			<path fill="#231F20" d="M507.728,102.891v-4.296H491.38v-5.871c0-8.353,1.217-14.654,11.014-14.654
				c0.182,0,0.37,0.016,0.561,0.024c0.021,0,0.015-0.031,0.035-0.031c2.723,0.198,4.987-2.018,5.142-4.736l0.198-3.727
				c-2.3-0.367-4.726-0.728-7.627-0.728c-16.825,0-20.696,9.808-20.696,24.82v4.902h-14.54v4.794c0.375,2.485,2.503,4.4,5.096,4.4
				c0.013,0,0.027,0.012,0.041,0.012h9.403v52.538h6.264c0.016,0,0.007,0,0.02,0c2.611,0,4.737-1.964,5.091-4.468v-48.07h11.384
				C505.44,107.714,507.595,105.57,507.728,102.891z"/>
			<path fill="#231F20" d="M356.149,98.595c-0.019,0-0.034,0.013-0.062,0.013c-2.396,0-4.719,1.649-5.732,3.877l-15.656,47.202
				h-0.246l-15.313-47.176c-1.003-2.244-3.335-3.903-5.746-3.903c-0.031,0-0.035-0.013-0.06-0.013H305.4l20.943,57.627
				c0.729,2.063,2.185,5.21,2.185,6.535c0,1.219-3.392,15.252-13.568,15.252c-0.251,0-0.505-0.028-0.754-0.046
				c-2.595-0.141-4.554,1.673-4.987,4.463l-0.311,3.942c2.059,0.363,4.125,0.849,7.753,0.849c15.012,0,19.487-13.687,23.731-25.546
				l22.754-63.076H356.149z"/>
			<path fill="#231F20" d="M283.805,111.137c-9.396-4.809-19.682-8.076-19.855-17.75c0.027-10.271,9.469-12.971,16.74-12.963
				c0.034-0.006,0.062-0.006,0.082-0.006c3.164,0,5.688,0.315,8.152,0.855c0.034,0,0.027-0.04,0.065-0.04
				c2.607,0.193,4.8-1.846,5.104-4.417l0.206-3.732c-4.77-1.184-9.753-1.79-14.091-1.79c-15.817,0.1-27.565,8.06-27.604,23.248
				c0.018,13.281,8.965,18.429,18.6,23.091c9.439,4.542,19.778,8.287,19.867,19.249c-0.051,11.434-11.089,15.647-18.693,15.666
				c-4.448-0.019-9.276-1.124-13.344-2.408c-2.55-0.419-4.64,1.828-4.974,4.809l-0.34,3.323c5.594,1.807,11.326,3.387,17.092,3.387
				c0,0,0.005,0,0.012,0c0.017,0,0.034,0,0.05,0c17.728-0.13,31.499-7.197,31.553-25.546
				C302.403,121.953,293.387,116.006,283.805,111.137z"/>
			<path fill="#231F20" d="M455.919,160.339c0.008,0,0.008,0,0.015,0c2.456,0,4.505-1.727,5.021-4.027v-35.56
				c0-13.438-5.678-23.609-21.426-23.609c-5.565,0-14.886,3.152-19.122,11.989c-3.267-8.355-10.411-11.989-17.547-11.989
				c-9.084,0-15.261,3.268-19.615,10.414h-0.242v-3.839c-0.034-2.825-2.323-5.11-5.153-5.11c-0.026,0-0.038-0.013-0.056-0.013
				h-5.441v61.744h6.155c0.009,0,0.009,0,0.013,0c2.856,0,5.164-2.316,5.164-5.165c0-0.08,0.024-0.106,0.051-0.158v-25.791
				c0-11.497,4.596-22.873,16.213-22.873c9.194,0,11.026,9.559,11.026,17.188v36.8h6.242c0.006,0,0.006,0,0.019,0
				c2.694,0,4.866-2.072,5.107-4.704v-26.41c0-11.497,4.604-22.873,16.222-22.873c9.201,0,11.02,9.559,11.02,17.188v36.8H455.919z"
				/>
			<path fill="#231F20" d="M631.777,160.339c0.006,0,0.006,0,0.014,0c2.775,0,5.009-2.19,5.142-4.938v-31.743
				c0-16.582-7.148-26.516-23.128-26.516c-8.594,0-16.821,4.241-20.218,11.267h-0.238v-4.612c0-0.006-0.011-0.006-0.011-0.018
				c0-2.862-2.316-5.172-5.16-5.172c-0.031,0-0.037-0.013-0.058-0.013h-5.794v61.744h6.257c0,0,0,0,0.011,0
				c2.707,0,4.904-2.105,5.112-4.763v-23.81c0-15.006,5.816-25.415,18.768-25.415c9.937,0.599,13.069,7.615,13.069,22.026v31.961
				H631.777z"/>
			<path fill="#231F20" d="M693.04,98.595c-0.027,0-0.04,0.013-0.065,0.013c-2.398,0-4.723,1.649-5.732,3.877l-15.65,47.202h-0.256
				l-15.317-47.176c-1.002-2.244-3.335-3.903-5.742-3.903c-0.022,0-0.035-0.013-0.058-0.013h-7.938l20.947,57.627
				c0.727,2.063,2.188,5.21,2.188,6.535c0,1.219-3.395,15.252-13.573,15.252c-0.245,0-0.494-0.028-0.749-0.046
				c-2.595-0.141-4.548,1.673-4.991,4.463l-0.307,3.942c2.056,0.363,4.121,0.849,7.756,0.849c15.008,0,19.485-13.687,23.729-25.546
				l22.759-63.076H693.04z"/>
		</g>
	</g>
	<path fill="#82E83F" d="M945.309,69.007h-3.972H916.74h-4.195c-2.777,0-5.043,2.347-5.043,5.107v4.437v64.312v18.144h3.725
		c0.112,0,1.453-0.146,1.559-0.161c3.564-0.35,7.717-3.795,7.717-7.68v-10.304v-23.856h10.293h0.166h6.181
		c2.774,0,6.36-2.942,6.36-5.68v-5.32H930.96h-0.166h-10.293v-28h20.836h3.972h2.454c2.813,0,4.738-2.487,4.738-5.298v-5.702
		H945.309z"/>
	<path fill="#82E83F" d="M786.581,148.536c-1.268-2.357-4.119-3.173-6.569-2.057l-1.815,0.736
		c-6.501,2.673-12.682,4.011-18.549,4.011c-9.459,0-16.916-3.198-22.358-9.59c-5.443-6.395-8.215-15.275-8.215-26.413
		c0-11.139,2.771-20.235,8.215-26.631c5.442-6.391,12.899-9.591,22.358-9.591c5.867,0,12.048,1.335,18.549,4.007l1.815,0.727
		c2.45,1.116,5.302,0.317,6.569-2.042l1.859-3.875l0,0c-13.943-7.773-20.47-8.466-30.473-8.466c-13.318,0-23.609,3.98-30.871,11.901
		c-7.262,7.922-10.884,19.387-10.884,33.977c0,14.591,3.622,25.841,10.884,33.763c7.262,7.923,17.553,11.884,30.871,11.884
		c10.003,0,16.529-0.692,30.473-8.467l0,0L786.581,148.536z"/>
	<path fill="#82E83F" d="M881.909,69.007c0,0-8.989,0-11.399,0s-3.564,1.629-4.021,2.902c-0.378,1.062-16.844,46.943-22.464,62.609
		c-5.619-15.666-22.085-61.583-22.464-62.644c-0.457-1.273-1.611-2.867-4.021-2.867c-2.41,0-11.4,0-11.4,0
		c-2.181,0-5.638,1.645-5.638,5.087v86.913h4.966c3.23,0,8.034-4.474,8.034-7.729v-67.11l23.441,65.556c0,0,1.418,3.283,4.583,3.283
		c0.139,0,1.3,0,2.498,0s2.359,0,2.498,0c3.165,0,4.561-3.283,4.561-3.283l23.419-65.556v67.11c0,3.254,4.85,7.729,8.08,7.729h4.92
		V74.094C887.501,70.651,884.09,69.007,881.909,69.007z"/>
</g>
</svg>
